<svg xmlns="http://www.w3.org/2000/svg" viewBox="0 0 1080 760" width="1080" height="760" font-family="Inter, sans-serif">
<defs>
 <pattern id="oak" width="48" height="12" patternUnits="userSpaceOnUse"><rect width="48" height="12" fill="#efe2cc"/><path d="M0 12 H48 M20 0 V12" stroke="#d9c7a8" stroke-width="0.8"/></pattern>
 <pattern id="oak2" width="48" height="24" patternUnits="userSpaceOnUse"><rect width="48" height="24" fill="url(#oak)"/><path d="M44 12 V24" stroke="#d9c7a8" stroke-width="0.8"/></pattern>
 <pattern id="tile" width="15" height="15" patternUnits="userSpaceOnUse"><rect width="15" height="15" fill="#e3eef2"/><path d="M15 0 H0 V15" fill="none" stroke="#b9cfd8" stroke-width="0.8"/></pattern>
 <pattern id="ktile" width="20" height="20" patternUnits="userSpaceOnUse" patternTransform="rotate(45)"><rect width="20" height="20" fill="#f1ede6"/><rect width="10" height="10" fill="#e2dccf"/><rect x="10" y="10" width="10" height="10" fill="#e2dccf"/></pattern>
 <pattern id="deck" width="10" height="40" patternUnits="userSpaceOnUse"><rect width="10" height="40" fill="#d6b88f"/><path d="M10 0 V40" stroke="#b08d60" stroke-width="1"/></pattern>
 <pattern id="rug" width="12" height="12" patternUnits="userSpaceOnUse"><rect width="12" height="12" fill="#c7d3e0"/><circle cx="6" cy="6" r="1.6" fill="#8da2b8"/></pattern>
 <pattern id="hatch" width="6" height="6" patternUnits="userSpaceOnUse" patternTransform="rotate(45)"><rect width="6" height="6" fill="#ffffff"/><line x1="0" y1="0" x2="0" y2="6" stroke="#1f2328" stroke-width="1.6"/></pattern>
</defs>
<rect width="1080" height="760" fill="#fafaf7"/>
<g>
<rect x="120" y="120" width="280" height="220" fill="url(#oak2)"/>
<rect x="400" y="120" width="160" height="220" fill="url(#tile)"/>
<rect x="560" y="120" width="220" height="220" fill="url(#oak2)"/>
<rect x="300" y="340" width="480" height="80" fill="url(#oak2)"/>
<path d="M120 340 H300 V420 H560 V600 H120 Z" fill="url(#oak2)"/>
<rect x="560" y="420" width="220" height="180" fill="url(#ktile)"/>
<rect x="200" y="616" width="270" height="64" fill="url(#deck)"/>
</g>
<path d="M104 104 H796 V616 H104 Z M120 120 V600 H780 V120 Z" fill="#1f2328" fill-rule="evenodd"/>
<rect x="396" y="120" width="8" height="220" fill="url(#hatch)" stroke="#1f2328" stroke-width="1.2"/>
<rect x="556" y="120" width="8" height="220" fill="url(#hatch)" stroke="#1f2328" stroke-width="1.2"/>
<rect x="120" y="336" width="200" height="8" fill="url(#hatch)" stroke="#1f2328" stroke-width="1.2"/>
<rect x="370" y="336" width="70" height="8" fill="url(#hatch)" stroke="#1f2328" stroke-width="1.2"/>
<rect x="490" y="336" width="110" height="8" fill="url(#hatch)" stroke="#1f2328" stroke-width="1.2"/>
<rect x="650" y="336" width="130" height="8" fill="url(#hatch)" stroke="#1f2328" stroke-width="1.2"/>
<rect x="296" y="336" width="8" height="88" fill="url(#hatch)" stroke="#1f2328" stroke-width="1.2"/>
<rect x="300" y="416" width="80" height="8" fill="url(#hatch)" stroke="#1f2328" stroke-width="1.2"/>
<rect x="520" y="416" width="80" height="8" fill="url(#hatch)" stroke="#1f2328" stroke-width="1.2"/>
<rect x="720" y="416" width="60" height="8" fill="url(#hatch)" stroke="#1f2328" stroke-width="1.2"/>
<rect x="556" y="416" width="8" height="184" fill="url(#hatch)" stroke="#1f2328" stroke-width="1.2"/>
<rect x="170" y="104" width="160" height="16" fill="#ffffff" stroke="#1f2328" stroke-width="1"/>
<path d="M170 110.0 H330 M170 114.0 H330" stroke="#4a90c2" stroke-width="1"/>
<rect x="450" y="104" width="60" height="16" fill="#ffffff" stroke="#1f2328" stroke-width="1"/>
<path d="M450 110.0 H510 M450 114.0 H510" stroke="#4a90c2" stroke-width="1"/>
<rect x="610" y="104" width="120" height="16" fill="#ffffff" stroke="#1f2328" stroke-width="1"/>
<path d="M610 110.0 H730 M610 114.0 H730" stroke="#4a90c2" stroke-width="1"/>
<rect x="780" y="200" width="16" height="90" fill="#ffffff" stroke="#1f2328" stroke-width="1"/>
<path d="M786.0 200 V290 M790.0 200 V290" stroke="#4a90c2" stroke-width="1"/>
<rect x="104" y="450" width="16" height="120" fill="#ffffff" stroke="#1f2328" stroke-width="1"/>
<path d="M110.0 450 V570 M114.0 450 V570" stroke="#4a90c2" stroke-width="1"/>
<rect x="360" y="600" width="110" height="16" fill="#ffffff" stroke="#1f2328" stroke-width="1"/>
<path d="M360 606.0 H470 M360 610.0 H470" stroke="#4a90c2" stroke-width="1"/>
<rect x="610" y="600" width="90" height="16" fill="#ffffff" stroke="#1f2328" stroke-width="1"/>
<path d="M610 606.0 H700 M610 610.0 H700" stroke="#4a90c2" stroke-width="1"/>
<rect x="220" y="600" width="120" height="16" fill="#ffffff" stroke="#1f2328" stroke-width="1"/><path d="M222 605 H282 M278 611 H338" stroke="#4a90c2" stroke-width="2.2"/>
<rect x="780" y="350" width="16" height="60" fill="#fafaf7"/>
<path d="M370 340 L370.0 290.0" stroke="#1f2328" stroke-width="2.2"/><path d="M320.0 340.0 A50 50 0 0 1 370.0 290.0" fill="none" stroke="#1f2328" stroke-width="0.8" stroke-dasharray="3 2"/>
<path d="M440 340 L440.0 290.0" stroke="#1f2328" stroke-width="2.2"/><path d="M490.0 340.0 A50 50 0 0 0 440.0 290.0" fill="none" stroke="#1f2328" stroke-width="0.8" stroke-dasharray="3 2"/>
<path d="M650 340 L650.0 290.0" stroke="#1f2328" stroke-width="2.2"/><path d="M600.0 340.0 A50 50 0 0 1 650.0 290.0" fill="none" stroke="#1f2328" stroke-width="0.8" stroke-dasharray="3 2"/>
<path d="M780 350 L720.0 350.0" stroke="#1f2328" stroke-width="2.2"/><path d="M780.0 410.0 A60 60 0 0 1 720.0 350.0" fill="none" stroke="#1f2328" stroke-width="0.8" stroke-dasharray="3 2"/>
<g><rect x="196" y="126" width="100" height="126" rx="4" fill="#ffffff" stroke="#5b6470" stroke-width="1.4"/><rect x="204" y="132" width="40" height="22" rx="6" fill="#ffffff" stroke="#5b6470" stroke-width="1.4"/><rect x="248" y="132" width="40" height="22" rx="6" fill="#ffffff" stroke="#5b6470" stroke-width="1.4"/><path d="M196 166 H296" stroke="#5b6470" stroke-width="1.2"/><path d="M196 166 L296 196" stroke="#5b6470" stroke-width="0.8" opacity="0.6"/><rect x="162" y="128" width="28" height="28" fill="#ffffff" stroke="#5b6470" stroke-width="1.4"/><rect x="302" y="128" width="28" height="28" fill="#ffffff" stroke="#5b6470" stroke-width="1.4"/><circle cx="176" cy="142" r="7" fill="none" stroke="#5b6470"/><circle cx="316" cy="142" r="7" fill="none" stroke="#5b6470"/><rect x="126" y="200" width="34" height="126" fill="#ffffff" stroke="#5b6470" stroke-width="1.4"/><path d="M126 242 H160 M126 284 H160" stroke="#5b6470" stroke-width="1"/><rect x="406" y="126" width="146" height="56" rx="6" fill="#ffffff" stroke="#5b6470" stroke-width="1.4"/><rect x="414" y="132" width="130" height="44" rx="18" fill="#eef6fa" stroke="#5b6470" stroke-width="1"/><circle cx="530" cy="154" r="3" fill="#5b6470"/><rect x="518" y="262" width="34" height="14" rx="2" fill="#ffffff" stroke="#5b6470" stroke-width="1.4"/><ellipse cx="535" cy="296" rx="13" ry="18" fill="#ffffff" stroke="#5b6470" stroke-width="1.4"/><rect x="406" y="222" width="40" height="62" rx="3" fill="#ffffff" stroke="#5b6470" stroke-width="1.4"/><ellipse cx="424" cy="253" rx="11" ry="16" fill="#eef6fa" stroke="#5b6470"/><rect x="712" y="180" width="62" height="130" rx="4" fill="#ffffff" stroke="#5b6470" stroke-width="1.4"/><rect x="720" y="186" width="46" height="24" rx="6" fill="#ffffff" stroke="#5b6470" stroke-width="1.4"/><path d="M712 222 H774" stroke="#5b6470" stroke-width="1.2"/><rect x="580" y="126" width="100" height="36" fill="#ffffff" stroke="#5b6470" stroke-width="1.4"/><circle cx="630" cy="182" r="13" fill="#ffffff" stroke="#5b6470" stroke-width="1.4"/><rect x="566" y="190" width="34" height="96" fill="#ffffff" stroke="#5b6470" stroke-width="1.4"/><path d="M566 238 H600" stroke="#5b6470"/><rect x="500" y="346" width="80" height="16" fill="#ffffff" stroke="#5b6470" stroke-width="1.4"/><path d="M566 570 H774 V428 H742 V570" fill="#f7f7f7" stroke="#5b6470" stroke-width="1.4"/><rect x="566" y="570" width="208" height="26" fill="#f7f7f7" stroke="#5b6470" stroke-width="1.4"/><rect x="742" y="428" width="32" height="142" fill="#f7f7f7" stroke="#5b6470" stroke-width="1.4"/><rect x="612" y="574" width="30" height="18" rx="3" fill="#eef6fa" stroke="#5b6470"/><rect x="646" y="574" width="30" height="18" rx="3" fill="#eef6fa" stroke="#5b6470"/><rect x="742" y="428" width="32" height="40" fill="#e9edf1" stroke="#5b6470" stroke-width="1.4"/><text x="758" y="452" font-size="9" font-weight="700" fill="#5b6470" text-anchor="middle">REF</text><circle cx="752" cy="488" r="7" fill="none" stroke="#5b6470" stroke-width="1.2"/><circle cx="766" cy="488" r="5" fill="none" stroke="#5b6470" stroke-width="1.2"/><circle cx="752" cy="512" r="5" fill="none" stroke="#5b6470" stroke-width="1.2"/><circle cx="766" cy="512" r="7" fill="none" stroke="#5b6470" stroke-width="1.2"/><rect x="180" y="462" width="150" height="120" fill="url(#rug)" stroke="#8da2b8" stroke-width="1"/><rect x="126" y="446" width="44" height="132" rx="6" fill="#ffffff" stroke="#5b6470" stroke-width="1.4"/><rect x="134" y="452" width="30" height="40" rx="4" fill="#ffffff" stroke="#5b6470" stroke-width="1.4"/><rect x="134" y="492" width="30" height="40" rx="4" fill="#ffffff" stroke="#5b6470" stroke-width="1.4"/><rect x="134" y="532" width="30" height="40" rx="4" fill="#ffffff" stroke="#5b6470" stroke-width="1.4"/><rect x="222" y="488" width="64" height="44" rx="4" fill="#ffffff" stroke="#5b6470" stroke-width="1.4"/><rect x="230" y="360" width="46" height="46" rx="8" fill="#ffffff" stroke="#5b6470" stroke-width="1.4"/><rect x="236" y="366" width="34" height="10" rx="3" fill="#ffffff" stroke="#5b6470" stroke-width="1.4"/><rect x="346" y="470" width="12" height="100" fill="#ffffff" stroke="#5b6470" stroke-width="1.4"/><rect x="420" y="470" width="96" height="60" rx="3" fill="#ffffff" stroke="#5b6470" stroke-width="1.4"/><rect x="430" y="452" width="20" height="16" rx="3" fill="#ffffff" stroke="#5b6470" stroke-width="1.4"/><rect x="430" y="532" width="20" height="16" rx="3" fill="#ffffff" stroke="#5b6470" stroke-width="1.4"/><rect x="458" y="452" width="20" height="16" rx="3" fill="#ffffff" stroke="#5b6470" stroke-width="1.4"/><rect x="458" y="532" width="20" height="16" rx="3" fill="#ffffff" stroke="#5b6470" stroke-width="1.4"/><rect x="486" y="452" width="20" height="16" rx="3" fill="#ffffff" stroke="#5b6470" stroke-width="1.4"/><rect x="486" y="532" width="20" height="16" rx="3" fill="#ffffff" stroke="#5b6470" stroke-width="1.4"/><circle cx="468" cy="500" r="12" fill="none" stroke="#5b6470" stroke-dasharray="2 2"/><rect x="200" y="676" width="270" height="4" fill="#1f2328"/><rect x="196" y="616" width="4" height="64" fill="#1f2328"/><rect x="470" y="616" width="4" height="64" fill="#1f2328"/><circle cx="222" cy="656" r="11" fill="#9cc58a" stroke="#4c7a3d" stroke-width="1.2"/><circle cx="222" cy="656" r="4" fill="#4c7a3d"/><circle cx="448" cy="656" r="11" fill="#9cc58a" stroke="#4c7a3d" stroke-width="1.2"/><circle cx="448" cy="656" r="4" fill="#4c7a3d"/></g>
<text x="258" y="290" font-size="11.5" font-weight="800" fill="#1f2328" text-anchor="middle" letter-spacing="1.2">BEDROOM 1</text><text x="258" y="304" font-size="10.5" fill="#5b6470" text-anchor="middle">16.6 m²</text>
<text x="478" y="212" font-size="11.5" font-weight="800" fill="#1f2328" text-anchor="middle" letter-spacing="1.2">BATH</text><text x="478" y="226" font-size="10.5" fill="#5b6470" text-anchor="middle">9.1 m²</text>
<text x="656" y="240" font-size="11.5" font-weight="800" fill="#1f2328" text-anchor="middle" letter-spacing="1.2">BEDROOM 2</text><text x="656" y="254" font-size="10.5" fill="#5b6470" text-anchor="middle">13.0 m²</text>
<text x="520" y="386" font-size="11.5" font-weight="800" fill="#1f2328" text-anchor="middle" letter-spacing="1.2">HALL</text><text x="520" y="400" font-size="10.5" fill="#5b6470" text-anchor="middle">9.5 m²</text>
<text x="255" y="437" font-size="11.5" font-weight="800" fill="#1f2328" text-anchor="middle" letter-spacing="1.2">LIVING / DINING</text><text x="255" y="451" font-size="10.5" fill="#5b6470" text-anchor="middle">25.2 m²</text>
<text x="650" y="476" font-size="11.5" font-weight="800" fill="#1f2328" text-anchor="middle" letter-spacing="1.2">KITCHEN</text><text x="650" y="490" font-size="10.5" fill="#5b6470" text-anchor="middle">10.6 m²</text>
<text x="335" y="652" font-size="11.5" font-weight="800" fill="#1f2328" text-anchor="middle" letter-spacing="1.2">BALCONY</text><text x="335" y="666" font-size="10.5" fill="#5b6470" text-anchor="middle">4.8 m²</text>
<path d="M120 80 H396" stroke="#1f2328" stroke-width="0.9"/><path d="M116 84 L124 76 M392 84 L400 76" stroke="#1f2328" stroke-width="1.4"/><path d="M120 72 V88 M396 72 V88" stroke="#1f2328" stroke-width="0.6"/><text x="258.0" y="75" font-size="10.5" fill="#1f2328" text-anchor="middle">4.60</text><path d="M404 80 H556" stroke="#1f2328" stroke-width="0.9"/><path d="M400 84 L408 76 M552 84 L560 76" stroke="#1f2328" stroke-width="1.4"/><path d="M404 72 V88 M556 72 V88" stroke="#1f2328" stroke-width="0.6"/><text x="480.0" y="75" font-size="10.5" fill="#1f2328" text-anchor="middle">2.53</text><path d="M564 80 H780" stroke="#1f2328" stroke-width="0.9"/><path d="M560 84 L568 76 M776 84 L784 76" stroke="#1f2328" stroke-width="1.4"/><path d="M564 72 V88 M780 72 V88" stroke="#1f2328" stroke-width="0.6"/><text x="672.0" y="75" font-size="10.5" fill="#1f2328" text-anchor="middle">3.60</text><path d="M120 56 H780" stroke="#1f2328" stroke-width="0.9"/><path d="M116 60 L124 52 M776 60 L784 52" stroke="#1f2328" stroke-width="1.4"/><path d="M120 48 V64 M780 48 V64" stroke="#1f2328" stroke-width="0.6"/><text x="450.0" y="51" font-size="10.5" fill="#1f2328" text-anchor="middle">11.00</text>
<path d="M80 120 V336" stroke="#1f2328" stroke-width="0.9"/><path d="M76 124 L84 116 M76 340 L84 332" stroke="#1f2328" stroke-width="1.4"/><path d="M72 120 H88 M72 336 H88" stroke="#1f2328" stroke-width="0.6"/><text x="75" y="228.0" font-size="10.5" fill="#1f2328" text-anchor="middle" transform="rotate(-90 75 228.0)">3.60</text><path d="M80 344 V600" stroke="#1f2328" stroke-width="0.9"/><path d="M76 348 L84 340 M76 604 L84 596" stroke="#1f2328" stroke-width="1.4"/><path d="M72 344 H88 M72 600 H88" stroke="#1f2328" stroke-width="0.6"/><text x="75" y="472.0" font-size="10.5" fill="#1f2328" text-anchor="middle" transform="rotate(-90 75 472.0)">4.27</text><path d="M56 120 V600" stroke="#1f2328" stroke-width="0.9"/><path d="M52 124 L60 116 M52 604 L60 596" stroke="#1f2328" stroke-width="1.4"/><path d="M48 120 H64 M48 600 H64" stroke="#1f2328" stroke-width="0.6"/><text x="51" y="360.0" font-size="10.5" fill="#1f2328" text-anchor="middle" transform="rotate(-90 51 360.0)">8.00</text>
<text x="830" y="140" font-size="26" font-weight="900" fill="#1f2328" letter-spacing="1">APARTMENT 4B</text>
<text x="830" y="162" font-size="12" fill="#5b6470">Floor plan · Level 4 · 2 bedrooms</text>
<rect x="830" y="176" width="210" height="2" fill="#d1495b"/>
<text x="830" y="202" font-size="12" fill="#1f2328">Net floor area <tspan font-weight="800">84.0 m²</tspan></text><text x="830" y="220" font-size="12" fill="#1f2328">Balcony <tspan font-weight="800">4.8 m²</tspan></text>
<text x="830" y="262" font-size="11" font-weight="800" fill="#1f2328" letter-spacing="1.5">FINISHES</text>
<rect x="830" y="276" width="30" height="18" fill="url(#oak2)" stroke="#1f2328" stroke-width="0.8"/><text x="870" y="289" font-size="11.5" fill="#1f2328">Oak boards</text>
<rect x="830" y="304" width="30" height="18" fill="url(#tile)" stroke="#1f2328" stroke-width="0.8"/><text x="870" y="317" font-size="11.5" fill="#1f2328">Ceramic tile</text>
<rect x="830" y="332" width="30" height="18" fill="url(#ktile)" stroke="#1f2328" stroke-width="0.8"/><text x="870" y="345" font-size="11.5" fill="#1f2328">Porcelain tile</text>
<rect x="830" y="360" width="30" height="18" fill="url(#deck)" stroke="#1f2328" stroke-width="0.8"/><text x="870" y="373" font-size="11.5" fill="#1f2328">Timber deck</text>
<rect x="830" y="388" width="30" height="18" fill="url(#hatch)" stroke="#1f2328" stroke-width="0.8"/><text x="870" y="401" font-size="11.5" fill="#1f2328">Partition wall</text>
<g transform="translate(870 470)"><circle r="28" fill="none" stroke="#1f2328" stroke-width="1.2"/><path d="M0 -24 L10 14 L0 6 L-10 14 Z" fill="#1f2328"/><path d="M0 -24 L0 6 L-10 14 Z" fill="#ffffff" stroke="#1f2328" stroke-width="1"/><text y="-34" font-size="13" font-weight="800" fill="#1f2328" text-anchor="middle">N</text></g>
<g><rect x="830" y="560" width="30" height="8" fill="#1f2328" stroke="#1f2328" stroke-width="0.8"/><rect x="860" y="560" width="30" height="8" fill="#ffffff" stroke="#1f2328" stroke-width="0.8"/><rect x="890" y="560" width="30" height="8" fill="#1f2328" stroke="#1f2328" stroke-width="0.8"/><rect x="920" y="560" width="30" height="8" fill="#ffffff" stroke="#1f2328" stroke-width="0.8"/></g>
<text x="830" y="584" font-size="10.5" fill="#1f2328" text-anchor="middle">0</text><text x="890" y="584" font-size="10.5" fill="#1f2328" text-anchor="middle">1</text><text x="950" y="584" font-size="10.5" fill="#1f2328" text-anchor="middle">2 m</text>
<text x="830" y="610" font-size="10.5" fill="#5b6470">Scale 1:100 · dimensions in metres</text>
<text x="830" y="680" font-size="10.5" fill="#5b6470">Drawing A-104 · Rev C</text><text x="830" y="696" font-size="10.5" fill="#5b6470">Harbour Row Residences</text>
</svg>